<?xml version="1.0" encoding="UTF-8" standalone="no"?>
<!DOCTYPE svg PUBLIC "-//W3C//DTD SVG 1.1//EN" "http://www.w3.org/Graphics/SVG/1.1/DTD/svg11.dtd">
<svg xmlns="http://www.w3.org/2000/svg" version="1.1" viewBox="0.00 0.00 256.00 256.00" width="128" height="128">
<g stroke-width="2.00" fill="none" stroke-linecap="butt">
<path stroke="#8e8e8f" vector-effect="non-scaling-stroke" d="
  M 48.00 218.43
  Q 48.01 218.44 56.83 219.35
  C 64.00 220.09 71.34 219.54 77.59 220.02
  Q 81.48 220.32 86.40 219.93
  C 95.35 219.23 100.96 219.15 106.66 212.41
  C 109.18 209.44 112.10 205.50 114.54 201.11
  Q 115.78 198.89 121.02 190.55
  Q 129.85 176.53 138.65 162.69
  Q 148.08 147.86 154.51 137.12
  Q 157.84 131.54 160.99 126.81
  Q 165.83 119.55 167.40 116.45
  Q 168.89 113.51 174.55 104.88
  C 179.34 97.60 185.22 88.88 182.45 80.56
  Q 180.73 75.37 175.71 67.48
  C 173.66 64.27 171.93 60.54 169.42 56.92
  Q 163.88 48.93 162.37 46.60
  Q 157.24 38.63 147.46 38.51
  Q 120.34 38.16 112.25 38.52
  C 106.85 38.75 100.88 39.80 97.37 43.39
  Q 94.13 46.69 90.19 53.17
  Q 77.48 74.10 64.56 94.74
  Q 45.72 124.84 24.86 157.90
  C 22.84 161.10 20.10 165.75 19.51 168.82
  Q 18.19 175.69 22.29 182.80
  Q 24.25 186.19 36.63 206.13
  C 39.69 211.05 42.13 213.83 45.90 217.29
  A 4.89 4.80 73.0 0 0 48.00 218.43"
/>
<path stroke="#8e8e8f" vector-effect="non-scaling-stroke" d="
  M 158.55 218.09
  Q 166.91 219.81 169.60 219.82
  Q 185.84 219.86 190.87 220.07
  C 195.83 220.29 203.39 219.63 206.86 218.62
  Q 212.86 216.86 217.09 211.07
  Q 221.59 204.91 232.97 186.27
  C 236.69 180.18 239.54 173.76 237.30 167.72
  Q 235.21 162.13 230.66 155.63
  A 9.95 9.92 14.7 0 1 229.82 154.20
  C 226.74 147.84 223.07 143.53 219.52 137.78
  C 215.99 132.07 212.15 126.89 205.44 126.18
  Q 200.58 125.66 186.25 125.76
  C 181.43 125.79 173.69 125.75 171.62 129.13
  Q 155.74 155.10 154.70 156.72
  Q 144.59 172.49 141.51 177.27
  Q 139.60 180.22 137.37 184.62
  C 135.16 188.97 136.39 192.04 138.76 196.08
  Q 141.25 200.34 148.15 210.20
  Q 150.60 213.71 157.62 217.73
  A 3.11 2.91 64.3 0 0 158.55 218.09"
/>
<path stroke="#8e8e8f" vector-effect="non-scaling-stroke" d="
  M 158.08 51.85
  C 157.32 50.75 156.03 50.21 154.94 51.30
  C 149.20 57.03 145.78 64.28 141.24 71.38
  Q 129.52 89.69 117.69 108.76
  Q 115.75 111.89 114.49 113.98
  Q 103.43 132.32 91.95 150.39
  Q 89.31 154.55 83.68 163.53
  Q 80.75 168.21 80.31 170.55
  Q 79.57 174.55 81.70 178.15
  Q 84.73 183.29 93.30 197.45
  C 95.17 200.53 96.55 202.22 99.08 205.81
  A 1.76 1.76 0.0 0 0 101.54 206.23
  C 105.84 203.18 107.45 200.05 111.31 194.31
  C 114.52 189.54 116.45 185.25 119.81 180.53
  Q 120.76 179.21 123.88 174.17
  Q 127.09 168.99 134.11 157.36
  C 135.12 155.68 137.16 153.28 138.33 151.30
  Q 141.07 146.69 154.77 124.38
  C 158.54 118.26 162.58 113.02 165.94 107.00
  C 169.09 101.36 172.23 97.25 175.49 91.22
  C 179.09 84.57 176.73 81.54 172.65 74.79
  Q 163.59 59.82 158.08 51.85"
/>
<path stroke="#8e8e8f" vector-effect="non-scaling-stroke" d="
  M 209.62 138.73
  C 206.45 141.86 204.19 144.12 201.76 148.11
  Q 192.14 163.86 189.85 168.07
  Q 187.79 171.86 188.78 174.25
  C 191.74 181.42 195.69 186.41 199.89 193.81
  Q 202.01 197.53 205.46 202.22
  Q 207.94 205.60 208.51 205.90
  C 212.87 208.17 218.37 197.79 219.93 194.44
  Q 220.93 192.30 225.72 185.76
  C 226.75 184.34 233.33 173.35 231.60 170.13
  Q 226.55 160.75 221.56 153.24
  C 218.59 148.78 215.71 142.18 212.31 138.74
  A 1.90 1.90 0.0 0 0 209.62 138.73"
/>
</g>
<path fill="#ffffff" d="
  M 193.13 109.11
  Q 194.22 109.82 196.77 109.97
  Q 201.13 110.23 206.24 110.19
  C 215.65 110.12 224.47 116.94 229.84 124.40
  Q 238.05 135.82 251.00 158.50
  Q 251.98 160.21 253.57 164.02
  Q 256.02 169.88 254.37 176.06
  Q 252.47 183.19 249.11 189.61
  Q 242.06 203.06 232.71 216.44
  Q 228.52 222.43 223.85 226.80
  Q 220.81 229.63 213.76 232.92
  Q 210.76 234.32 203.61 234.63
  Q 199.92 234.79 193.26 235.46
  Q 186.67 236.13 176.53 235.46
  Q 168.28 234.92 155.64 233.58
  A 10.52 10.40 61.5 0 1 151.96 232.47
  L 141.79 227.20
  A 2.24 1.47 -0.4 0 1 141.48 227.00
  Q 137.05 223.53 133.87 220.42
  Q 132.44 219.02 131.29 216.55
  Q 130.15 214.11 129.43 214.02
  C 127.30 213.76 125.84 216.05 124.52 218.13
  Q 123.72 219.39 122.30 220.73
  C 117.26 225.47 112.14 229.79 106.23 232.37
  Q 102.42 234.04 93.72 234.80
  C 82.10 235.82 73.55 236.21 63.58 235.15
  Q 54.56 234.19 53.23 234.19
  C 45.42 234.21 39.09 231.13 32.67 227.26
  A 5.32 5.22 -0.5 0 1 31.00 225.65
  C 29.39 223.17 28.57 221.64 26.92 219.84
  C 22.34 214.84 19.69 208.62 16.05 203.49
  Q 13.34 199.68 9.74 192.39
  Q 8.01 188.88 7.40 187.94
  C 5.99 185.77 4.85 184.08 4.20 182.02
  Q -0.06 168.58 7.41 156.18
  Q 15.06 143.48 29.21 121.00
  Q 49.35 88.98 79.24 40.76
  Q 80.13 39.32 84.62 33.79
  Q 87.80 29.88 91.04 27.89
  Q 98.63 23.23 109.24 23.00
  Q 135.52 22.42 150.97 23.13
  C 164.84 23.76 172.51 32.04 180.30 44.48
  Q 189.31 58.85 194.33 67.44
  C 201.03 78.89 202.27 95.40 192.72 105.78
  A 2.21 2.20 -52.1 0 0 193.13 109.11
  Z
  M 48.00 218.43
  Q 48.01 218.44 56.83 219.35
  C 64.00 220.09 71.34 219.54 77.59 220.02
  Q 81.48 220.32 86.40 219.93
  C 95.35 219.23 100.96 219.15 106.66 212.41
  C 109.18 209.44 112.10 205.50 114.54 201.11
  Q 115.78 198.89 121.02 190.55
  Q 129.85 176.53 138.65 162.69
  Q 148.08 147.86 154.51 137.12
  Q 157.84 131.54 160.99 126.81
  Q 165.83 119.55 167.40 116.45
  Q 168.89 113.51 174.55 104.88
  C 179.34 97.60 185.22 88.88 182.45 80.56
  Q 180.73 75.37 175.71 67.48
  C 173.66 64.27 171.93 60.54 169.42 56.92
  Q 163.88 48.93 162.37 46.60
  Q 157.24 38.63 147.46 38.51
  Q 120.34 38.16 112.25 38.52
  C 106.85 38.75 100.88 39.80 97.37 43.39
  Q 94.13 46.69 90.19 53.17
  Q 77.48 74.10 64.56 94.74
  Q 45.72 124.84 24.86 157.90
  C 22.84 161.10 20.10 165.75 19.51 168.82
  Q 18.19 175.69 22.29 182.80
  Q 24.25 186.19 36.63 206.13
  C 39.69 211.05 42.13 213.83 45.90 217.29
  A 4.89 4.80 73.0 0 0 48.00 218.43
  Z
  M 158.55 218.09
  Q 166.91 219.81 169.60 219.82
  Q 185.84 219.86 190.87 220.07
  C 195.83 220.29 203.39 219.63 206.86 218.62
  Q 212.86 216.86 217.09 211.07
  Q 221.59 204.91 232.97 186.27
  C 236.69 180.18 239.54 173.76 237.30 167.72
  Q 235.21 162.13 230.66 155.63
  A 9.95 9.92 14.7 0 1 229.82 154.20
  C 226.74 147.84 223.07 143.53 219.52 137.78
  C 215.99 132.07 212.15 126.89 205.44 126.18
  Q 200.58 125.66 186.25 125.76
  C 181.43 125.79 173.69 125.75 171.62 129.13
  Q 155.74 155.10 154.70 156.72
  Q 144.59 172.49 141.51 177.27
  Q 139.60 180.22 137.37 184.62
  C 135.16 188.97 136.39 192.04 138.76 196.08
  Q 141.25 200.34 148.15 210.20
  Q 150.60 213.71 157.62 217.73
  A 3.11 2.91 64.3 0 0 158.55 218.09
  Z"
/>
<path fill="#1c1d1f" d="
  M 48.00 218.43
  A 4.89 4.80 73.0 0 1 45.90 217.29
  C 42.13 213.83 39.69 211.05 36.63 206.13
  Q 24.25 186.19 22.29 182.80
  Q 18.19 175.69 19.51 168.82
  C 20.10 165.75 22.84 161.10 24.86 157.90
  Q 45.72 124.84 64.56 94.74
  Q 77.48 74.10 90.19 53.17
  Q 94.13 46.69 97.37 43.39
  C 100.88 39.80 106.85 38.75 112.25 38.52
  Q 120.34 38.16 147.46 38.51
  Q 157.24 38.63 162.37 46.60
  Q 163.88 48.93 169.42 56.92
  C 171.93 60.54 173.66 64.27 175.71 67.48
  Q 180.73 75.37 182.45 80.56
  C 185.22 88.88 179.34 97.60 174.55 104.88
  Q 168.89 113.51 167.40 116.45
  Q 165.83 119.55 160.99 126.81
  Q 157.84 131.54 154.51 137.12
  Q 148.08 147.86 138.65 162.69
  Q 129.85 176.53 121.02 190.55
  Q 115.78 198.89 114.54 201.11
  C 112.10 205.50 109.18 209.44 106.66 212.41
  C 100.96 219.15 95.35 219.23 86.40 219.93
  Q 81.48 220.32 77.59 220.02
  C 71.34 219.54 64.00 220.09 56.83 219.35
  Q 48.01 218.44 48.00 218.43
  Z
  M 158.08 51.85
  C 157.32 50.75 156.03 50.21 154.94 51.30
  C 149.20 57.03 145.78 64.28 141.24 71.38
  Q 129.52 89.69 117.69 108.76
  Q 115.75 111.89 114.49 113.98
  Q 103.43 132.32 91.95 150.39
  Q 89.31 154.55 83.68 163.53
  Q 80.75 168.21 80.31 170.55
  Q 79.57 174.55 81.70 178.15
  Q 84.73 183.29 93.30 197.45
  C 95.17 200.53 96.55 202.22 99.08 205.81
  A 1.76 1.76 0.0 0 0 101.54 206.23
  C 105.84 203.18 107.45 200.05 111.31 194.31
  C 114.52 189.54 116.45 185.25 119.81 180.53
  Q 120.76 179.21 123.88 174.17
  Q 127.09 168.99 134.11 157.36
  C 135.12 155.68 137.16 153.28 138.33 151.30
  Q 141.07 146.69 154.77 124.38
  C 158.54 118.26 162.58 113.02 165.94 107.00
  C 169.09 101.36 172.23 97.25 175.49 91.22
  C 179.09 84.57 176.73 81.54 172.65 74.79
  Q 163.59 59.82 158.08 51.85
  Z"
/>
<path fill="#ffffff" d="
  M 154.94 51.30
  C 156.03 50.21 157.32 50.75 158.08 51.85
  Q 163.59 59.82 172.65 74.79
  C 176.73 81.54 179.09 84.57 175.49 91.22
  C 172.23 97.25 169.09 101.36 165.94 107.00
  C 162.58 113.02 158.54 118.26 154.77 124.38
  Q 141.07 146.69 138.33 151.30
  C 137.16 153.28 135.12 155.68 134.11 157.36
  Q 127.09 168.99 123.88 174.17
  Q 120.76 179.21 119.81 180.53
  C 116.45 185.25 114.52 189.54 111.31 194.31
  C 107.45 200.05 105.84 203.18 101.54 206.23
  A 1.76 1.76 0.0 0 1 99.08 205.81
  C 96.55 202.22 95.17 200.53 93.30 197.45
  Q 84.73 183.29 81.70 178.15
  Q 79.57 174.55 80.31 170.55
  Q 80.75 168.21 83.68 163.53
  Q 89.31 154.55 91.95 150.39
  Q 103.43 132.32 114.49 113.98
  Q 115.75 111.89 117.69 108.76
  Q 129.52 89.69 141.24 71.38
  C 145.78 64.28 149.20 57.03 154.94 51.30
  Z"
/>
<path fill="#1c1d1f" d="
  M 157.62 217.73
  Q 150.60 213.71 148.15 210.20
  Q 141.25 200.34 138.76 196.08
  C 136.39 192.04 135.16 188.97 137.37 184.62
  Q 139.60 180.22 141.51 177.27
  Q 144.59 172.49 154.70 156.72
  Q 155.74 155.10 171.62 129.13
  C 173.69 125.75 181.43 125.79 186.25 125.76
  Q 200.58 125.66 205.44 126.18
  C 212.15 126.89 215.99 132.07 219.52 137.78
  C 223.07 143.53 226.74 147.84 229.82 154.20
  A 9.95 9.92 14.7 0 0 230.66 155.63
  Q 235.21 162.13 237.30 167.72
  C 239.54 173.76 236.69 180.18 232.97 186.27
  Q 221.59 204.91 217.09 211.07
  Q 212.86 216.86 206.86 218.62
  C 203.39 219.63 195.83 220.29 190.87 220.07
  Q 185.84 219.86 169.60 219.82
  Q 166.91 219.81 158.55 218.09
  A 3.11 2.91 64.3 0 1 157.62 217.73
  Z
  M 209.62 138.73
  C 206.45 141.86 204.19 144.12 201.76 148.11
  Q 192.14 163.86 189.85 168.07
  Q 187.79 171.86 188.78 174.25
  C 191.74 181.42 195.69 186.41 199.89 193.81
  Q 202.01 197.53 205.46 202.22
  Q 207.94 205.60 208.51 205.90
  C 212.87 208.17 218.37 197.79 219.93 194.44
  Q 220.93 192.30 225.72 185.76
  C 226.75 184.34 233.33 173.35 231.60 170.13
  Q 226.55 160.75 221.56 153.24
  C 218.59 148.78 215.71 142.18 212.31 138.74
  A 1.90 1.90 0.0 0 0 209.62 138.73
  Z"
/>
<path fill="#ffffff" d="
  M 209.62 138.73
  A 1.90 1.90 0.0 0 1 212.31 138.74
  C 215.71 142.18 218.59 148.78 221.56 153.24
  Q 226.55 160.75 231.60 170.13
  C 233.33 173.35 226.75 184.34 225.72 185.76
  Q 220.93 192.30 219.93 194.44
  C 218.37 197.79 212.87 208.17 208.51 205.90
  Q 207.94 205.60 205.46 202.22
  Q 202.01 197.53 199.89 193.81
  C 195.69 186.41 191.74 181.42 188.78 174.25
  Q 187.79 171.86 189.85 168.07
  Q 192.14 163.86 201.76 148.11
  C 204.19 144.12 206.45 141.86 209.62 138.73
  Z"
/>
</svg>