<?xml version="1.0" encoding="UTF-8" standalone="no"?>
<!DOCTYPE svg PUBLIC "-//W3C//DTD SVG 1.1//EN" "http://www.w3.org/Graphics/SVG/1.1/DTD/svg11.dtd">
<svg xmlns="http://www.w3.org/2000/svg" version="1.1" viewBox="0.00 0.00 256.00 256.00" width="128" height="128">
<path fill="#2a4b87" d="
  M 194.14 180.25
  C 194.02 178.11 195.02 171.17 198.77 171.60
  C 208.98 172.76 216.38 170.13 224.58 165.08
  Q 231.72 160.69 236.13 152.79
  C 242.35 141.65 241.86 129.44 235.96 118.24
  Q 233.04 112.71 227.73 108.37
  Q 218.98 101.21 207.15 100.11
  C 198.34 99.28 198.00 92.44 196.78 84.49
  C 195.60 76.75 192.29 71.31 187.01 63.42
  Q 185.61 61.34 180.42 56.78
  Q 177.13 53.90 172.51 51.62
  C 163.89 47.37 158.78 44.84 149.92 44.88
  Q 127.67 44.97 112.33 59.92
  Q 109.48 62.69 106.49 67.32
  Q 102.26 73.87 101.69 75.46
  Q 99.31 82.04 98.01 84.74
  Q 95.66 89.62 90.64 87.68
  Q 86.24 85.98 82.38 84.15
  C 79.65 82.86 76.95 82.62 73.98 83.74
  Q 68.46 85.84 64.87 89.29
  A 3.71 3.62 82.5 0 0 64.19 90.20
  C 61.99 94.39 61.29 96.88 59.92 102.64
  C 59.10 106.14 57.47 106.98 54.37 107.86
  C 49.72 109.18 43.35 109.59 39.01 111.52
  Q 28.60 116.17 23.76 124.54
  Q 14.10 141.26 24.86 158.65
  Q 26.83 161.82 32.84 166.68
  C 42.38 174.39 55.12 173.70 67.77 172.52
  A 2.71 2.70 83.4 0 1 70.71 174.85
  L 71.55 180.94
  A 1.44 1.43 77.5 0 1 70.56 182.50
  Q 68.25 183.22 66.50 183.05
  Q 64.81 182.88 51.06 182.25
  Q 41.44 181.81 37.11 180.17
  C 25.66 175.82 16.74 167.25 12.58 155.77
  Q 8.35 144.11 10.61 132.63
  C 13.37 118.65 22.22 108.15 35.38 102.41
  Q 36.39 101.98 43.98 99.49
  Q 49.66 97.62 52.49 92.49
  Q 57.55 83.29 57.66 83.13
  A 8.86 7.99 -11.1 0 1 58.50 82.01
  Q 62.25 77.77 69.61 75.09
  Q 77.55 72.19 85.85 74.86
  Q 89.37 75.99 91.72 72.97
  C 95.35 68.33 98.14 61.36 102.05 56.83
  Q 112.37 44.90 125.22 39.51
  C 131.47 36.88 140.52 35.29 148.26 35.65
  Q 154.84 35.96 156.25 36.07
  Q 165.51 36.78 174.05 41.20
  Q 193.20 51.10 202.57 70.39
  Q 203.82 72.97 205.45 79.56
  C 206.87 85.36 208.05 87.33 211.90 90.38
  Q 212.87 91.16 216.67 92.17
  C 233.48 96.68 245.32 109.03 249.90 126.13
  C 251.83 133.33 250.63 141.97 248.48 149.26
  Q 248.02 150.84 244.59 157.43
  C 240.70 164.90 235.84 169.55 228.75 174.14
  C 219.34 180.25 206.82 181.61 195.33 181.40
  A 1.23 1.21 88.7 0 1 194.14 180.25
  Z"
/>
<path fill="#fc5e13" d="
  M 188.50 160.86
  A 54.40 54.40 0.0 0 1 134.10 215.26
  A 54.40 54.40 0.0 0 1 79.70 160.86
  A 54.40 54.40 0.0 0 1 134.10 106.46
  A 54.40 54.40 0.0 0 1 188.50 160.86
  Z
  M 168.78 133.53
  Q 165.85 131.46 163.49 128.31
  Q 161.69 125.92 159.36 124.35
  Q 153.52 120.43 151.33 119.46
  C 146.61 117.36 140.74 115.67 135.36 116.30
  C 131.70 116.72 127.10 116.77 123.44 117.59
  C 117.32 118.97 110.96 122.13 105.78 125.99
  C 102.91 128.12 100.04 132.28 97.81 134.90
  Q 95.80 137.26 94.72 139.52
  C 85.54 158.73 88.62 179.44 104.22 193.78
  C 107.90 197.16 112.41 199.54 116.65 202.04
  A 11.88 11.82 -21.3 0 0 119.36 203.22
  Q 130.87 206.61 142.24 204.72
  C 149.60 203.50 154.15 200.33 162.17 195.55
  A 5.73 5.68 6.6 0 0 163.33 194.64
  L 170.16 187.54
  A 1.70 1.41 -13.1 0 0 170.32 187.33
  Q 176.84 176.78 178.42 166.72
  C 179.64 158.88 178.37 149.38 174.32 141.75
  Q 171.93 137.25 171.25 136.15
  A 9.08 9.08 0.0 0 0 168.78 133.53
  Z"
/>
<path fill="#fc5e13" d="
  M 127.49 165.63
  Q 124.76 162.05 123.52 159.63
  C 122.04 156.73 119.80 154.95 117.92 152.34
  C 115.56 149.04 112.45 148.09 112.10 143.38
  A 2.28 2.28 0.0 0 1 113.84 141.00
  Q 114.76 140.77 116.09 141.86
  Q 116.61 142.27 120.24 146.29
  A 4.78 4.78 0.0 0 0 121.04 147.00
  Q 126.14 150.55 129.16 154.68
  A 1.22 1.21 70.9 0 0 130.18 155.18
  L 134.41 155.04
  A 1.75 1.75 0.0 0 0 135.54 154.58
  L 155.82 136.07
  A 2.82 2.82 0.0 0 1 159.93 136.40
  L 159.95 136.43
  A 3.74 3.74 0.0 0 1 159.48 141.42
  Q 157.08 143.62 151.61 149.10
  C 147.71 153.00 144.40 158.61 140.77 163.31
  A 0.73 0.69 65.3 0 0 140.62 163.75
  Q 140.61 164.06 140.49 164.24
  Q 139.80 165.28 136.58 168.59
  A 3.25 2.72 29.1 0 1 133.44 169.19
  Q 133.18 169.10 132.89 169.19
  Q 131.70 169.56 130.98 168.74
  Q 129.29 166.81 127.86 165.96
  A 1.30 1.23 -1.6 0 1 127.49 165.63
  Z"
/>
</svg>