<?xml version="1.0" encoding="UTF-8" standalone="no"?>
<!DOCTYPE svg PUBLIC "-//W3C//DTD SVG 1.1//EN" "http://www.w3.org/Graphics/SVG/1.1/DTD/svg11.dtd">
<svg xmlns="http://www.w3.org/2000/svg" version="1.1" viewBox="0.00 0.00 180.00 180.00" width="128" height="128">
<g stroke-width="2.00" fill="none" stroke-linecap="butt">
<path stroke="#5a2c43" vector-effect="non-scaling-stroke" d="
  M 59.55 53.75
  Q 53.18 55.77 48.78 60.19"
/>
<path stroke="#4f2e4c" vector-effect="non-scaling-stroke" d="
  M 48.78 60.19
  L 48.07 61.00
  A 0.39 0.39 0.0 0 1 47.39 60.75
  L 47.39 55.96
  A 0.60 0.59 90.0 0 0 46.80 55.36
  L 40.28 55.32"
/>
<path stroke="#482f52" vector-effect="non-scaling-stroke" d="
  M 40.28 55.32
  L 31.99 55.32
  A 0.33 0.33 0.0 0 0 31.66 55.65
  L 31.66 140.46
  A 0.53 0.53 0.0 0 0 32.19 140.99
  L 40.99 140.93"
/>
<path stroke="#4f2e4c" vector-effect="non-scaling-stroke" d="
  M 40.99 140.93
  L 47.02 140.96
  A 0.39 0.39 0.0 0 0 47.41 140.57
  Q 47.39 112.70 47.43 84.75
  Q 47.43 82.03 49.55 77.80"
/>
<path stroke="#5a2c43" vector-effect="non-scaling-stroke" d="
  M 49.55 77.80
  Q 53.36 71.57 59.77 69.53"
/>
<path stroke="#692a37" vector-effect="non-scaling-stroke" d="
  M 59.77 69.53
  Q 69.53 67.39 76.60 73.31"
/>
<path stroke="#7b2728" vector-effect="non-scaling-stroke" d="
  M 76.60 73.31
  Q 81.88 77.92 81.88 83.50
  Q 81.87 111.66 81.88 140.27
  A 0.66 0.65 90.0 0 0 82.53 140.93
  L 96.29 140.90"
/>
<path stroke="#7d2e26" vector-effect="non-scaling-stroke" d="
  M 96.29 140.90
  Q 97.88 141.29 97.89 140.51
  Q 98.14 113.51 98.11 86.50
  Q 98.11 78.26 103.49 73.48
  Q 105.00 72.14 107.70 70.49"
/>
<path stroke="#7f4125" vector-effect="non-scaling-stroke" d="
  M 107.70 70.49
  Q 121.36 65.61 129.78 76.26"
/>
<path stroke="#805024" vector-effect="non-scaling-stroke" d="
  M 129.78 76.26
  Q 132.68 80.91 132.68 85.04
  Q 132.72 112.49 132.70 139.95
  Q 132.69 140.71 133.01 140.92
  Q 133.37 141.15 134.03 140.88"
/>
<path stroke="#815824" vector-effect="non-scaling-stroke" d="
  M 134.03 140.88
  L 147.90 140.91
  A 0.51 0.51 0.0 0 0 148.41 140.40
  Q 148.44 113.20 148.45 86.00
  Q 148.46 76.47 143.27 68.29"
/>
<path stroke="#805024" vector-effect="non-scaling-stroke" d="
  M 143.27 68.29
  Q 138.62 60.61 130.21 56.41"
/>
<path stroke="#7f4125" vector-effect="non-scaling-stroke" d="
  M 130.21 56.41
  Q 119.53 51.37 107.50 53.98"
/>
<path stroke="#7d2e26" vector-effect="non-scaling-stroke" d="
  M 107.50 53.98
  Q 97.85 56.46 90.97 63.53"
/>
<path stroke="#7b2728" vector-effect="non-scaling-stroke" d="
  M 90.97 63.53
  L 90.34 64.27
  A 0.51 0.50 44.0 0 1 89.58 64.28
  Q 84.89 59.08 78.52 56.17"
/>
<path stroke="#692a37" vector-effect="non-scaling-stroke" d="
  M 78.52 56.17
  Q 69.45 51.78 59.55 53.75"
/>
<path stroke="#da4855" vector-effect="non-scaling-stroke" d="
  M 78.52 56.17
  L 76.60 73.31"
/>
<path stroke="#b94c70" vector-effect="non-scaling-stroke" d="
  M 59.77 69.53
  L 59.55 53.75"
/>
<path stroke="#a05085" vector-effect="non-scaling-stroke" d="
  M 49.55 77.80
  L 48.78 60.19"
/>
<path stroke="#ee4c45" vector-effect="non-scaling-stroke" d="
  M 96.29 140.90
  L 92.87 140.32
  A 0.60 0.59 4.1 0 1 92.37 139.75
  L 90.97 63.53"
/>
<path stroke="#f68740" vector-effect="non-scaling-stroke" d="
  M 130.21 56.41
  L 129.78 76.26"
/>
<path stroke="#f26542" vector-effect="non-scaling-stroke" d="
  M 107.70 70.49
  L 107.50 53.98"
/>
<path stroke="#8e5395" vector-effect="non-scaling-stroke" d="
  M 40.28 55.32
  Q 39.65 98.14 40.99 140.93"
/>
<path stroke="#f89f3f" vector-effect="non-scaling-stroke" d="
  M 143.27 68.29
  C 142.15 93.27 141.78 116.23 146.56 140.14
  A 0.43 0.43 0.0 0 1 146.15 140.65
  L 134.03 140.88"
/>
</g>
<path fill="#090909" d="
  M 163.72 0.00
  Q 177.44 2.46 180.00 16.24
  L 180.00 163.71
  Q 179.61 165.24 179.23 166.76
  C 177.73 172.69 172.70 177.72 166.77 179.21
  Q 165.26 179.59 163.76 180.00
  L 16.29 180.00
  Q 14.77 179.61 13.25 179.23
  C 7.31 177.74 2.27 172.70 0.78 166.77
  Q 0.40 165.26 0.00 163.75
  L 0.00 16.30
  Q 2.46 2.54 16.24 0.00
  L 163.72 0.00
  Z
  M 59.55 53.75
  Q 53.18 55.77 48.78 60.19
  L 48.07 61.00
  A 0.39 0.39 0.0 0 1 47.39 60.75
  L 47.39 55.96
  A 0.60 0.59 90.0 0 0 46.80 55.36
  L 40.28 55.32
  L 31.99 55.32
  A 0.33 0.33 0.0 0 0 31.66 55.65
  L 31.66 140.46
  A 0.53 0.53 0.0 0 0 32.19 140.99
  L 40.99 140.93
  L 47.02 140.96
  A 0.39 0.39 0.0 0 0 47.41 140.57
  Q 47.39 112.70 47.43 84.75
  Q 47.43 82.03 49.55 77.80
  Q 53.36 71.57 59.77 69.53
  Q 69.53 67.39 76.60 73.31
  Q 81.88 77.92 81.88 83.50
  Q 81.87 111.66 81.88 140.27
  A 0.66 0.65 90.0 0 0 82.53 140.93
  L 96.29 140.90
  Q 97.88 141.29 97.89 140.51
  Q 98.14 113.51 98.11 86.50
  Q 98.11 78.26 103.49 73.48
  Q 105.00 72.14 107.70 70.49
  Q 121.36 65.61 129.78 76.26
  Q 132.68 80.91 132.68 85.04
  Q 132.72 112.49 132.70 139.95
  Q 132.69 140.71 133.01 140.92
  Q 133.37 141.15 134.03 140.88
  L 147.90 140.91
  A 0.51 0.51 0.0 0 0 148.41 140.40
  Q 148.44 113.20 148.45 86.00
  Q 148.46 76.47 143.27 68.29
  Q 138.62 60.61 130.21 56.41
  Q 119.53 51.37 107.50 53.98
  Q 97.85 56.46 90.97 63.53
  L 90.34 64.27
  A 0.51 0.50 44.0 0 1 89.58 64.28
  Q 84.89 59.08 78.52 56.17
  Q 69.45 51.78 59.55 53.75
  Z"
/>
<path fill="#c84a64" d="
  M 78.52 56.17
  L 76.60 73.31
  Q 69.53 67.39 59.77 69.53
  L 59.55 53.75
  Q 69.45 51.78 78.52 56.17
  Z"
/>
<path fill="#f47841" d="
  M 130.21 56.41
  L 129.78 76.26
  Q 121.36 65.61 107.70 70.49
  L 107.50 53.98
  Q 119.53 51.37 130.21 56.41
  Z"
/>
<path fill="#aa4e7c" d="
  M 59.55 53.75
  L 59.77 69.53
  Q 53.36 71.57 49.55 77.80
  L 48.78 60.19
  Q 53.18 55.77 59.55 53.75
  Z"
/>
<path fill="#f05243" d="
  M 107.50 53.98
  L 107.70 70.49
  Q 105.00 72.14 103.49 73.48
  Q 98.11 78.26 98.11 86.50
  Q 98.14 113.51 97.89 140.51
  Q 97.88 141.29 96.29 140.90
  L 92.87 140.32
  A 0.60 0.59 4.1 0 1 92.37 139.75
  L 90.97 63.53
  Q 97.85 56.46 107.50 53.98
  Z"
/>
<path fill="#86549b" d="
  M 40.28 55.32
  Q 39.65 98.14 40.99 140.93
  L 32.19 140.99
  A 0.53 0.53 0.0 0 1 31.66 140.46
  L 31.66 55.65
  A 0.33 0.33 0.0 0 1 31.99 55.32
  L 40.28 55.32
  Z"
/>
<path fill="#95528e" d="
  M 48.78 60.19
  L 49.55 77.80
  Q 47.43 82.03 47.43 84.75
  Q 47.39 112.70 47.41 140.57
  A 0.39 0.39 0.0 0 1 47.02 140.96
  L 40.99 140.93
  Q 39.65 98.14 40.28 55.32
  L 46.80 55.36
  A 0.60 0.59 90.0 0 1 47.39 55.96
  L 47.39 60.75
  A 0.39 0.39 0.0 0 0 48.07 61.00
  L 48.78 60.19
  Z"
/>
<path fill="#ec4546" d="
  M 78.52 56.17
  Q 84.89 59.08 89.58 64.28
  A 0.51 0.50 44.0 0 0 90.34 64.27
  L 90.97 63.53
  L 92.37 139.75
  A 0.60 0.59 4.1 0 0 92.87 140.32
  L 96.29 140.90
  L 82.53 140.93
  A 0.66 0.65 90.0 0 1 81.88 140.27
  Q 81.87 111.66 81.88 83.50
  Q 81.88 77.92 76.60 73.31
  L 78.52 56.17
  Z"
/>
<path fill="#f7963f" d="
  M 130.21 56.41
  Q 138.62 60.61 143.27 68.29
  C 142.15 93.27 141.78 116.23 146.56 140.14
  A 0.43 0.43 0.0 0 1 146.15 140.65
  L 134.03 140.88
  Q 133.37 141.15 133.01 140.92
  Q 132.69 140.71 132.70 139.95
  Q 132.72 112.49 132.68 85.04
  Q 132.68 80.91 129.78 76.26
  L 130.21 56.41
  Z"
/>
<path fill="#f8a73e" d="
  M 143.27 68.29
  Q 148.46 76.47 148.45 86.00
  Q 148.44 113.20 148.41 140.40
  A 0.51 0.51 0.0 0 1 147.90 140.91
  L 134.03 140.88
  L 146.15 140.65
  A 0.43 0.43 0.0 0 0 146.56 140.14
  C 141.78 116.23 142.15 93.27 143.27 68.29
  Z"
/>
</svg>