<?xml version="1.0" encoding="UTF-8" standalone="no"?>
<!DOCTYPE svg PUBLIC "-//W3C//DTD SVG 1.1//EN" "http://www.w3.org/Graphics/SVG/1.1/DTD/svg11.dtd">
<svg xmlns="http://www.w3.org/2000/svg" version="1.1" viewBox="0.00 0.00 180.00 180.00" width="128" height="128">
<g stroke-width="2.00" fill="none" stroke-linecap="butt">
<path stroke="#adaad0" vector-effect="non-scaling-stroke" d="
  M 28.13 82.03
  C 23.30 114.58 41.91 149.54 75.62 154.39
  C 107.66 159.00 148.14 134.57 153.18 100.60
  C 158.23 66.64 126.60 31.50 94.61 26.59
  C 60.95 21.44 32.97 49.47 28.13 82.03"
/>
<path stroke="#adaad0" vector-effect="non-scaling-stroke" d="
  M 91.75 53.91
  C 89.77 66.80 103.01 73.39 112.65 65.39
  Q 116.72 62.01 117.36 57.84
  Q 118.00 53.66 115.13 49.22
  C 108.33 38.70 93.73 41.02 91.75 53.91"
/>
<path stroke="#adaad0" vector-effect="non-scaling-stroke" d="
  M 84.47 146.91
  Q 85.26 146.33 85.83 145.31
  Q 95.63 127.92 99.81 108.53
  C 101.53 100.52 102.00 92.10 98.57 84.69
  C 92.56 71.71 79.68 61.69 66.54 55.95
  Q 62.47 54.16 58.56 53.74
  A 0.59 0.58 -14.0 0 0 58.01 54.65
  Q 59.99 57.54 64.49 64.57
  Q 88.51 102.14 83.82 146.54
  A 0.41 0.41 0.0 0 0 84.47 146.91"
/>
</g>
<path fill="#ffffff" d="
  M 180.00 0.00
  L 180.00 180.00
  L 0.00 180.00
  L 0.00 0.00
  L 180.00 0.00
  Z
  M 28.13 82.03
  C 23.30 114.58 41.91 149.54 75.62 154.39
  C 107.66 159.00 148.14 134.57 153.18 100.60
  C 158.23 66.64 126.60 31.50 94.61 26.59
  C 60.95 21.44 32.97 49.47 28.13 82.03
  Z"
/>
<path fill="#5a54a0" d="
  M 153.18 100.60
  C 148.14 134.57 107.66 159.00 75.62 154.39
  C 41.91 149.54 23.30 114.58 28.13 82.03
  C 32.97 49.47 60.95 21.44 94.61 26.59
  C 126.60 31.50 158.23 66.64 153.18 100.60
  Z
  M 91.75 53.91
  C 89.77 66.80 103.01 73.39 112.65 65.39
  Q 116.72 62.01 117.36 57.84
  Q 118.00 53.66 115.13 49.22
  C 108.33 38.70 93.73 41.02 91.75 53.91
  Z
  M 84.47 146.91
  Q 85.26 146.33 85.83 145.31
  Q 95.63 127.92 99.81 108.53
  C 101.53 100.52 102.00 92.10 98.57 84.69
  C 92.56 71.71 79.68 61.69 66.54 55.95
  Q 62.47 54.16 58.56 53.74
  A 0.59 0.58 -14.0 0 0 58.01 54.65
  Q 59.99 57.54 64.49 64.57
  Q 88.51 102.14 83.82 146.54
  A 0.41 0.41 0.0 0 0 84.47 146.91
  Z"
/>
<path fill="#ffffff" d="
  M 117.36 57.84
  Q 116.72 62.01 112.65 65.39
  C 103.01 73.39 89.77 66.80 91.75 53.91
  C 93.73 41.02 108.33 38.70 115.13 49.22
  Q 118.00 53.66 117.36 57.84
  Z"
/>
<path fill="#ffffff" d="
  M 84.47 146.91
  A 0.41 0.41 0.0 0 1 83.82 146.54
  Q 88.51 102.14 64.49 64.57
  Q 59.99 57.54 58.01 54.65
  A 0.59 0.58 -14.0 0 1 58.56 53.74
  Q 62.47 54.16 66.54 55.95
  C 79.68 61.69 92.56 71.71 98.57 84.69
  C 102.00 92.10 101.53 100.52 99.81 108.53
  Q 95.63 127.92 85.83 145.31
  Q 85.26 146.33 84.47 146.91
  Z"
/>
</svg>