<?xml version="1.0" encoding="UTF-8" standalone="no"?>
<!DOCTYPE svg PUBLIC "-//W3C//DTD SVG 1.1//EN" "http://www.w3.org/Graphics/SVG/1.1/DTD/svg11.dtd">
<svg xmlns="http://www.w3.org/2000/svg" version="1.1" viewBox="0.00 0.00 512.00 512.00" width="128" height="128">
<g stroke-width="2.00" fill="none" stroke-linecap="butt">
<path stroke="#fb9e86" vector-effect="non-scaling-stroke" d="
  M 170.56 199.15
  C 158.71 183.44 138.59 169.08 118.34 169.37
  Q 89.72 169.78 67.58 188.11
  Q 61.98 192.75 55.61 199.20
  A 0.29 0.29 0.0 0 0 55.62 199.61
  L 112.65 256.65
  A 0.58 0.57 44.6 0 0 113.46 256.65
  L 170.53 199.58
  A 0.33 0.33 0.0 0 0 170.56 199.15"
/>
<path stroke="#fb9e86" vector-effect="non-scaling-stroke" d="
  M 127.28 271.27
  L 183.92 327.91
  A 0.46 0.46 0.0 0 0 184.58 327.91
  L 312.68 199.81
  A 0.65 0.65 0.0 0 0 312.74 198.96
  C 305.55 189.45 297.12 182.34 286.82 176.51
  Q 268.77 166.32 247.09 170.63
  Q 222.33 175.56 205.37 192.20
  Q 194.36 203.00 127.27 270.24
  A 0.73 0.73 0.0 0 0 127.28 271.27"
/>
<path stroke="#fb9e86" vector-effect="non-scaling-stroke" d="
  M 455.30 198.74
  C 444.08 183.88 424.94 169.96 405.75 169.47
  Q 379.18 168.80 357.49 184.49
  Q 350.43 189.60 348.01 192.02
  Q 295.82 244.15 198.29 341.71
  A 0.45 0.45 0.0 0 0 198.30 342.35
  C 205.80 349.61 213.56 358.74 221.75 364.27
  C 241.28 377.48 266.97 378.11 287.40 365.54
  Q 292.92 362.14 301.17 353.88
  Q 389.65 265.27 455.22 199.81
  A 0.82 0.82 0.0 0 0 455.30 198.74"
/>
</g>
<path fill="#fa4616" d="
  M 512.00 0.00
  L 512.00 512.00
  L 0.00 512.00
  L 0.00 0.00
  L 512.00 0.00
  Z
  M 170.56 199.15
  C 158.71 183.44 138.59 169.08 118.34 169.37
  Q 89.72 169.78 67.58 188.11
  Q 61.98 192.75 55.61 199.20
  A 0.29 0.29 0.0 0 0 55.62 199.61
  L 112.65 256.65
  A 0.58 0.57 44.6 0 0 113.46 256.65
  L 170.53 199.58
  A 0.33 0.33 0.0 0 0 170.56 199.15
  Z
  M 127.28 271.27
  L 183.92 327.91
  A 0.46 0.46 0.0 0 0 184.58 327.91
  L 312.68 199.81
  A 0.65 0.65 0.0 0 0 312.74 198.96
  C 305.55 189.45 297.12 182.34 286.82 176.51
  Q 268.77 166.32 247.09 170.63
  Q 222.33 175.56 205.37 192.20
  Q 194.36 203.00 127.27 270.24
  A 0.73 0.73 0.0 0 0 127.28 271.27
  Z
  M 455.30 198.74
  C 444.08 183.88 424.94 169.96 405.75 169.47
  Q 379.18 168.80 357.49 184.49
  Q 350.43 189.60 348.01 192.02
  Q 295.82 244.15 198.29 341.71
  A 0.45 0.45 0.0 0 0 198.30 342.35
  C 205.80 349.61 213.56 358.74 221.75 364.27
  C 241.28 377.48 266.97 378.11 287.40 365.54
  Q 292.92 362.14 301.17 353.88
  Q 389.65 265.27 455.22 199.81
  A 0.82 0.82 0.0 0 0 455.30 198.74
  Z"
/>
<path fill="#fcf6f5" d="
  M 170.56 199.15
  A 0.33 0.33 0.0 0 1 170.53 199.58
  L 113.46 256.65
  A 0.58 0.57 44.6 0 1 112.65 256.65
  L 55.62 199.61
  A 0.29 0.29 0.0 0 1 55.61 199.20
  Q 61.98 192.75 67.58 188.11
  Q 89.72 169.78 118.34 169.37
  C 138.59 169.08 158.71 183.44 170.56 199.15
  Z"
/>
<path fill="#fcf6f5" d="
  M 127.27 270.24
  Q 194.36 203.00 205.37 192.20
  Q 222.33 175.56 247.09 170.63
  Q 268.77 166.32 286.82 176.51
  C 297.12 182.34 305.55 189.45 312.74 198.96
  A 0.65 0.65 0.0 0 1 312.68 199.81
  L 184.58 327.91
  A 0.46 0.46 0.0 0 1 183.92 327.91
  L 127.28 271.27
  A 0.73 0.73 0.0 0 1 127.27 270.24
  Z"
/>
<path fill="#fcf6f5" d="
  M 455.22 199.81
  Q 389.65 265.27 301.17 353.88
  Q 292.92 362.14 287.40 365.54
  C 266.97 378.11 241.28 377.48 221.75 364.27
  C 213.56 358.74 205.80 349.61 198.30 342.35
  A 0.45 0.45 0.0 0 1 198.29 341.71
  Q 295.82 244.15 348.01 192.02
  Q 350.43 189.60 357.49 184.49
  Q 379.18 168.80 405.75 169.47
  C 424.94 169.96 444.08 183.88 455.30 198.74
  A 0.82 0.82 0.0 0 1 455.22 199.81
  Z"
/>
</svg>